<svg width="139" height="127" viewBox="0 0 139 127" fill="none" xmlns="http://www.w3.org/2000/svg">
<path d="M87.0013 99.3915C154.676 82.461 96.2213 2.73145 38.6104 31.5586C26.749 37.4949 19.9942 46.592 20.5934 59.397C20.7692 63.1646 21.6482 66.8612 23.039 70.3898C29.51 86.8228 58.0054 106.646 87.0038 99.3917L87.0013 99.3915Z" fill="#E0B100"/>
<path d="M90.9607 97.0448C99.3892 93.3098 107.422 87.7281 112.169 80.1289C115.276 75.1558 117.045 69.5003 117.473 63.7778C118.351 52.0587 113.179 40.2496 102.603 33.4712C96.282 29.4203 88.6496 27.5344 81.0446 27.1032C76.2308 26.8312 71.4021 27.1424 66.6406 27.8041C62.307 28.4059 58.0231 29.2336 53.9457 30.746C44.5545 34.2343 35.9245 39.9844 29.6903 47.3922C25.9363 51.8512 23.2097 56.8427 22.1475 62.4452C21.1947 67.4552 21.3912 72.7119 22.9336 77.6089C24.4088 82.2846 27.4687 86.2871 30.6704 90.089C34.4394 94.5617 39.4621 97.6812 45.0819 99.8738C56.6076 104.37 69.6085 103.909 81.3879 100.501C84.6618 99.5533 87.8486 98.3752 90.9607 97.0425C92.0503 96.5768 91.1025 95.0851 90.0179 95.5485C78.6415 100.425 65.653 102.995 53.2267 100.462C47.5472 99.3043 42.1787 97.0956 37.4645 93.9369C35.0688 92.3323 33.1557 90.3287 31.3919 88.1384C29.8296 86.1995 28.2424 84.1959 26.9488 82.0933C21.6624 73.505 22.446 61.6544 27.6628 53.2207C32.8348 44.8584 41.2931 38.3244 50.5251 34.0545C58.2943 30.4601 67.0486 28.9846 75.6885 28.7563C83.3507 28.5557 91.217 29.6255 98.0682 32.9524C108.999 38.2599 115.331 48.7732 115.689 60.0728C115.858 65.4494 114.773 70.8997 112.432 75.8313C109.407 82.2039 104.367 87.1724 98.2324 91.1403C95.6327 92.8233 92.8788 94.2828 90.0204 95.5508C88.9382 96.0304 89.8835 97.5221 90.9632 97.0448H90.9607Z" fill="white"/>
<path d="M84.1311 63.3198C84.8644 63.7432 84.8644 64.8017 84.1311 65.2251L60.8811 78.6485C60.1477 79.0719 59.2311 78.5426 59.2311 77.6959L59.2311 50.8491C59.2311 50.0023 60.1477 49.473 60.8811 49.8964L84.1311 63.3198Z" stroke="white" stroke-width="1.8"/>
</svg>
